# xmcd
#
# Track frame offsets:
#  150
#  12995
#  35625
#  54055
#  78872
#  90235
#  110020
#  137750
#  146777
#  164742
#  183777
#  208552
#
# Disc length: 2974 seconds
#
# Revision: 0
# Processed by: cddbd v1.5.1PL0 Copyright (c) Steve Scherf et al.
# Submitted via: Collectorz.com Music Collector 6.9
#
DISCID=9a0b9c0c
DTITLE=Champion Jack Dupree with Henry - Real Combination
DYEAR=2002
DGENRE=Blues
TTITLE0=Lordy, Lordy
TTITLE1=Mother In-Law Blues
TTITLE2=All Night Long
TTITLE3=Louise
TTITLE4=Baby, Please Don't Go
TTITLE5=Last Night
TTITLE6=Real Combination
TTITLE7=Henry's Rockin' Boogie Woogie
TTITLE8=The Unemployment Season Blues
TTITLE9=I Wanna Ride
TTITLE10=Calcutta Blues
TTITLE11=Rockin' Chair
EXTD=
EXTT0=
EXTT1=
EXTT2=
EXTT3=
EXTT4=
EXTT5=
EXTT6=
EXTT7=
EXTT8=
EXTT9=
EXTT10=
EXTT11=
PLAYORDER=
